<mxfile host="Electron" modified="2023-07-18T15:15:53.135Z" agent="Mozilla/5.0 (Windows NT 10.0; Win64; x64) AppleWebKit/537.36 (KHTML, like Gecko) draw.io/21.6.1 Chrome/112.0.5615.204 Electron/24.6.1 Safari/537.36" etag="1SK2VzWPTx-vvVYx8wjX" version="21.6.1" type="device">
  <diagram name="Страница 1" id="9AdSGZ-wU5dIfNWMVngr">
    <mxGraphModel dx="1192" dy="635" grid="1" gridSize="10" guides="1" tooltips="1" connect="1" arrows="1" fold="1" page="1" pageScale="1" pageWidth="827" pageHeight="1169" math="0" shadow="0">
      <root>
        <mxCell id="0" />
        <mxCell id="1" parent="0" />
        <mxCell id="fwMDCeDDaVyuJN_M8xQI-4" value="" style="edgeStyle=orthogonalEdgeStyle;rounded=0;orthogonalLoop=1;jettySize=auto;html=1;" edge="1" parent="1" source="fwMDCeDDaVyuJN_M8xQI-2" target="fwMDCeDDaVyuJN_M8xQI-3">
          <mxGeometry relative="1" as="geometry" />
        </mxCell>
        <mxCell id="fwMDCeDDaVyuJN_M8xQI-2" value="start" style="ellipse;whiteSpace=wrap;html=1;" vertex="1" parent="1">
          <mxGeometry x="330" y="30" width="120" height="80" as="geometry" />
        </mxCell>
        <mxCell id="fwMDCeDDaVyuJN_M8xQI-6" value="" style="edgeStyle=orthogonalEdgeStyle;rounded=0;orthogonalLoop=1;jettySize=auto;html=1;" edge="1" parent="1" source="fwMDCeDDaVyuJN_M8xQI-3" target="fwMDCeDDaVyuJN_M8xQI-5">
          <mxGeometry relative="1" as="geometry" />
        </mxCell>
        <mxCell id="fwMDCeDDaVyuJN_M8xQI-3" value="numN" style="whiteSpace=wrap;html=1;" vertex="1" parent="1">
          <mxGeometry x="330" y="140" width="120" height="40" as="geometry" />
        </mxCell>
        <mxCell id="fwMDCeDDaVyuJN_M8xQI-26" value="" style="edgeStyle=orthogonalEdgeStyle;rounded=0;orthogonalLoop=1;jettySize=auto;html=1;" edge="1" parent="1" source="fwMDCeDDaVyuJN_M8xQI-5" target="fwMDCeDDaVyuJN_M8xQI-25">
          <mxGeometry relative="1" as="geometry" />
        </mxCell>
        <mxCell id="fwMDCeDDaVyuJN_M8xQI-5" value="numN = N;" style="shape=parallelogram;perimeter=parallelogramPerimeter;whiteSpace=wrap;html=1;fixedSize=1;" vertex="1" parent="1">
          <mxGeometry x="330" y="200" width="120" height="40" as="geometry" />
        </mxCell>
        <mxCell id="fwMDCeDDaVyuJN_M8xQI-10" value="" style="edgeStyle=orthogonalEdgeStyle;rounded=0;orthogonalLoop=1;jettySize=auto;html=1;" edge="1" parent="1" source="fwMDCeDDaVyuJN_M8xQI-7" target="fwMDCeDDaVyuJN_M8xQI-9">
          <mxGeometry relative="1" as="geometry" />
        </mxCell>
        <mxCell id="fwMDCeDDaVyuJN_M8xQI-7" value="i= nimusNumN" style="whiteSpace=wrap;html=1;" vertex="1" parent="1">
          <mxGeometry x="330" y="380" width="120" height="60" as="geometry" />
        </mxCell>
        <mxCell id="fwMDCeDDaVyuJN_M8xQI-12" value="" style="edgeStyle=orthogonalEdgeStyle;rounded=0;orthogonalLoop=1;jettySize=auto;html=1;" edge="1" parent="1" source="fwMDCeDDaVyuJN_M8xQI-9" target="fwMDCeDDaVyuJN_M8xQI-11">
          <mxGeometry relative="1" as="geometry" />
        </mxCell>
        <mxCell id="fwMDCeDDaVyuJN_M8xQI-21" style="edgeStyle=orthogonalEdgeStyle;rounded=0;orthogonalLoop=1;jettySize=auto;html=1;" edge="1" parent="1" source="fwMDCeDDaVyuJN_M8xQI-9" target="fwMDCeDDaVyuJN_M8xQI-22">
          <mxGeometry relative="1" as="geometry">
            <mxPoint x="680" y="720" as="targetPoint" />
          </mxGeometry>
        </mxCell>
        <mxCell id="fwMDCeDDaVyuJN_M8xQI-9" value="i&amp;lt;=N;" style="rhombus;whiteSpace=wrap;html=1;" vertex="1" parent="1">
          <mxGeometry x="250" y="470" width="280" height="80" as="geometry" />
        </mxCell>
        <mxCell id="fwMDCeDDaVyuJN_M8xQI-16" value="" style="edgeStyle=orthogonalEdgeStyle;rounded=0;orthogonalLoop=1;jettySize=auto;html=1;" edge="1" parent="1" source="fwMDCeDDaVyuJN_M8xQI-11" target="fwMDCeDDaVyuJN_M8xQI-15">
          <mxGeometry relative="1" as="geometry" />
        </mxCell>
        <mxCell id="fwMDCeDDaVyuJN_M8xQI-11" value="print i" style="shape=document;whiteSpace=wrap;html=1;boundedLbl=1;" vertex="1" parent="1">
          <mxGeometry x="330" y="665" width="120" height="80" as="geometry" />
        </mxCell>
        <mxCell id="fwMDCeDDaVyuJN_M8xQI-17" style="edgeStyle=orthogonalEdgeStyle;rounded=0;orthogonalLoop=1;jettySize=auto;html=1;entryX=0;entryY=0.5;entryDx=0;entryDy=0;" edge="1" parent="1" source="fwMDCeDDaVyuJN_M8xQI-15" target="fwMDCeDDaVyuJN_M8xQI-9">
          <mxGeometry relative="1" as="geometry">
            <Array as="points">
              <mxPoint x="250" y="815" />
            </Array>
          </mxGeometry>
        </mxCell>
        <mxCell id="fwMDCeDDaVyuJN_M8xQI-15" value="i=i++" style="whiteSpace=wrap;html=1;" vertex="1" parent="1">
          <mxGeometry x="330" y="800" width="120" height="30" as="geometry" />
        </mxCell>
        <mxCell id="fwMDCeDDaVyuJN_M8xQI-18" value="true" style="text;html=1;strokeColor=none;fillColor=none;align=center;verticalAlign=middle;whiteSpace=wrap;rounded=0;" vertex="1" parent="1">
          <mxGeometry x="390" y="620" width="60" height="30" as="geometry" />
        </mxCell>
        <mxCell id="fwMDCeDDaVyuJN_M8xQI-20" value="False" style="text;html=1;strokeColor=none;fillColor=none;align=center;verticalAlign=middle;whiteSpace=wrap;rounded=0;rotation=0;" vertex="1" parent="1">
          <mxGeometry x="540" y="520" width="60" height="30" as="geometry" />
        </mxCell>
        <mxCell id="fwMDCeDDaVyuJN_M8xQI-22" value="end" style="ellipse;whiteSpace=wrap;html=1;aspect=fixed;" vertex="1" parent="1">
          <mxGeometry x="640" y="680" width="80" height="80" as="geometry" />
        </mxCell>
        <mxCell id="fwMDCeDDaVyuJN_M8xQI-28" value="" style="edgeStyle=orthogonalEdgeStyle;rounded=0;orthogonalLoop=1;jettySize=auto;html=1;" edge="1" parent="1" source="fwMDCeDDaVyuJN_M8xQI-25" target="fwMDCeDDaVyuJN_M8xQI-27">
          <mxGeometry relative="1" as="geometry" />
        </mxCell>
        <mxCell id="fwMDCeDDaVyuJN_M8xQI-25" value="minusNumN" style="whiteSpace=wrap;html=1;" vertex="1" parent="1">
          <mxGeometry x="330" y="260" width="120" height="30" as="geometry" />
        </mxCell>
        <mxCell id="fwMDCeDDaVyuJN_M8xQI-29" value="" style="edgeStyle=orthogonalEdgeStyle;rounded=0;orthogonalLoop=1;jettySize=auto;html=1;" edge="1" parent="1" source="fwMDCeDDaVyuJN_M8xQI-27" target="fwMDCeDDaVyuJN_M8xQI-7">
          <mxGeometry relative="1" as="geometry" />
        </mxCell>
        <mxCell id="fwMDCeDDaVyuJN_M8xQI-27" value="minusNumN= - numN" style="shape=parallelogram;perimeter=parallelogramPerimeter;whiteSpace=wrap;html=1;fixedSize=1;" vertex="1" parent="1">
          <mxGeometry x="290" y="310" width="200" height="40" as="geometry" />
        </mxCell>
      </root>
    </mxGraphModel>
  </diagram>
</mxfile>
